<svg aria-hidden="true" style="position: absolute; width: 0; height: 0; overflow: hidden;" version="1.1" xmlns="http://www.w3.org/2000/svg" xmlns:xlink="http://www.w3.org/1999/xlink">
<defs>
<symbol id="icon-Icon-card-four" viewBox="0 0 32 32">
<path d="M16.612 2.214c-0.169-0.133-0.386-0.214-0.621-0.214s-0.452 0.080-0.623 0.215l0.002-0.002-14.37 11.205 1.242 1.573 1.758-1.37v12.379c0.002 1.104 0.896 1.998 2 2h20c1.104-0.002 1.998-0.896 2-2v-12.37l1.757 1.371 1.243-1.573-14.389-11.214zM18 26h-4v-8h4v8zM20 26v-8c-0.001-1.104-0.896-1.999-2-2h-4c-1.104 0.001-1.999 0.896-2 2v8h-6v-13.938l10-7.79 10 7.8v13.928h-6z"></path>
</symbol>
<symbol id="icon-Icon-card-one" viewBox="0 0 37 32">
<path d="M12.619 3.575c-0.344 0.667-0.53 1.607-0.419 2.658s0.488 1.933 0.964 2.514c0.48 0.587 0.981 0.785 1.382 0.742s0.85-0.34 1.198-1.013c0.344-0.667 0.53-1.607 0.419-2.658s-0.488-1.933-0.964-2.514c-0.48-0.587-0.981-0.785-1.382-0.742s-0.85 0.34-1.198 1.013zM11.076 2.778c0.516-1.001 1.389-1.821 2.56-1.944 1.169-0.123 2.193 0.5 2.907 1.371 0.72 0.878 1.207 2.093 1.348 3.433s-0.083 2.628-0.604 3.636c-0.516 1.001-1.389 1.821-2.56 1.944s-2.194-0.499-2.907-1.37c-0.72-0.878-1.207-2.093-1.348-3.433s0.083-2.628 0.604-3.636zM23.476 3.305c-0.475 0.58-0.852 1.462-0.963 2.513s0.076 1.991 0.42 2.658c0.348 0.675 0.796 0.972 1.198 1.014s0.901-0.156 1.382-0.742c0.476-0.58 0.853-1.462 0.964-2.513s-0.076-1.992-0.42-2.659c-0.348-0.674-0.796-0.972-1.197-1.013s-0.902 0.155-1.383 0.742zM22.133 2.204c0.714-0.87 1.738-1.492 2.907-1.368 1.171 0.123 2.044 0.943 2.56 1.944 0.522 1.008 0.745 2.298 0.604 3.637s-0.628 2.554-1.347 3.432c-0.714 0.871-1.738 1.492-2.908 1.369s-2.043-0.943-2.56-1.944c-0.521-1.008-0.745-2.298-0.604-3.637s0.628-2.554 1.348-3.431zM33.007 10.427c-0.662 0.257-1.37 0.808-1.92 1.622s-0.797 1.676-0.788 2.386c0.009 0.714 0.267 1.185 0.62 1.422s0.886 0.299 1.552 0.040c0.661-0.258 1.369-0.809 1.92-1.623s0.797-1.676 0.788-2.386c-0.009-0.713-0.267-1.184-0.619-1.422-0.353-0.236-0.886-0.298-1.552-0.039zM32.378 8.809c1.028-0.4 2.196-0.427 3.154 0.219s1.37 1.736 1.384 2.837c0.015 1.105-0.361 2.308-1.084 3.38s-1.7 1.869-2.732 2.27c-1.028 0.399-2.196 0.427-3.153-0.219s-1.371-1.737-1.385-2.837c-0.014-1.105 0.362-2.308 1.084-3.38 0.724-1.071 1.701-1.87 2.732-2.27zM5.617 10.461c0.662 0.258 1.369 0.809 1.92 1.623s0.797 1.676 0.788 2.386c-0.009 0.713-0.267 1.184-0.619 1.422-0.352 0.236-0.886 0.298-1.552 0.039-0.662-0.257-1.369-0.808-1.92-1.623s-0.797-1.676-0.788-2.385c0.009-0.714 0.267-1.185 0.619-1.422s0.886-0.299 1.552-0.040zM6.246 8.844c-1.028-0.4-2.196-0.427-3.154 0.219s-1.371 1.737-1.385 2.837c-0.014 1.105 0.362 2.308 1.085 3.38s1.7 1.87 2.732 2.27c1.028 0.4 2.196 0.427 3.154-0.219s1.371-1.736 1.385-2.837c0.014-1.105-0.362-2.308-1.085-3.38s-1.7-1.869-2.732-2.27zM19.222 13.279c-0.376 0.009-0.841 0.207-1.644 0.837v0c-1.656 1.298-5.084 3.991-6.47 5.135-0.967 0.797-1.316 1.428-1.57 1.888-0.026 0.046-0.050 0.092-0.075 0.133-0.258 0.558-0.45 1.44-0.492 2.436-0.044 1.004 0.068 2.028 0.343 2.828 0.562 1.636 1.807 2.72 2.636 3.020l0.047 0.017 0.044 0.022c0.046 0.023 0.235 0.088 0.579 0.142 0.322 0.052 0.72 0.084 1.148 0.080 0.882-0.012 1.751-0.185 2.331-0.569 1.076-0.711 2.054-1.243 3.172-1.276 1.123-0.034 2.213 0.437 3.526 1.267 1.267 0.8 2.944 0.511 3.724 0.306 0.847-0.334 1.998-0.987 2.862-3.061 1.049-2.522 0.144-4.518-0.165-5.2l-0.025-0.055c-0.224-0.498-0.749-1.124-1.406-1.693-1.026-0.887-2.761-2.233-4.403-3.505-0.889-0.69-1.751-1.357-2.457-1.92-0.852-0.678-1.342-0.842-1.704-0.833zM19.179 11.542c0.988-0.025 1.884 0.46 2.829 1.211 0.663 0.528 1.496 1.174 2.371 1.852 1.668 1.294 3.484 2.702 4.543 3.618 0.74 0.64 1.48 1.463 1.854 2.293l0.028 0.062c0.347 0.763 1.523 3.351 0.18 6.574-1.092 2.622-2.67 3.563-3.882 4.030l-0.042 0.017-0.044 0.012c-0.792 0.215-3.179 0.742-5.148-0.502-1.24-0.784-1.962-1.017-2.547-0.999-0.59 0.018-1.212 0.292-2.267 0.989-0.982 0.65-2.243 0.843-3.266 0.855-0.037 0.001-0.080 0.001-0.123 0.001-0.466 0-0.923-0.037-1.369-0.108l0.049 0.006c-0.375-0.060-0.75-0.15-1.032-0.28-1.358-0.512-2.935-2.010-3.644-4.073-0.364-1.060-0.484-2.312-0.436-3.467 0.051-1.147 0.273-2.295 0.674-3.135l0.013-0.029 0.016-0.028 0.086-0.154c0.276-0.5 0.756-1.368 1.979-2.377 1.407-1.161 4.856-3.869 6.504-5.162v-0.001c0.85-0.665 1.698-1.182 2.672-1.206z"></path>
<path d="M16.822 17.286c0-0.48 0.389-0.868 0.868-0.868h3.122c0.48 0 0.868 0.388 0.868 0.868v1.91h1.816c0.48 0 0.868 0.388 0.868 0.868v3.18c0 0.48-0.388 0.868-0.868 0.868h-1.815v1.941c0 0.48-0.389 0.868-0.868 0.868h-3.122c-0.48 0-0.868-0.389-0.868-0.868v0-1.941h-1.909c-0.48 0-0.868-0.389-0.868-0.868v0-3.18c0-0.48 0.389-0.868 0.868-0.868h1.909v-1.911zM18.559 18.155v1.91c0 0.48-0.388 0.868-0.868 0.868h-1.909v1.444h1.909c0.48 0 0.868 0.388 0.868 0.868v1.941h1.385v-1.941c0-0.48 0.388-0.868 0.868-0.868h1.815v-1.444h-1.815c-0.48 0-0.868-0.389-0.868-0.868v0-1.911h-1.385z"></path>
</symbol>
<symbol id="icon-Icon-card-three" viewBox="0 0 32 32">
<path d="M16 3c-5.522 0.001-9.999 4.478-9.999 10 0 5.17 3.924 9.424 8.955 9.946l0.043 0.004v6.050c0.015 0.541 0.457 0.973 1 0.973s0.985-0.432 1-0.971l0-0.001v-6.050c5.075-0.526 8.998-4.78 8.998-9.95 0-5.522-4.476-9.999-9.998-10h-0zM16 21c-4.418 0-8-3.582-8-8s3.582-8 8-8c4.418 0 8 3.582 8 8v0c-0.007 4.416-3.584 7.993-7.999 8h-0.001z"></path>
</symbol>
<symbol id="icon-Icon-card-two" viewBox="0 0 32 32">
<path d="M16 3c-0.625 0-1.246 0.21-1.781 0.594l-1.655 1.154-1.908 0.251h-0.031l-0.030 0.030c-1.279 0.296-2.268 1.284-2.559 2.54l-0.004 0.023-0.030 0.030v0.032l-0.25 1.938-1.156 1.5-0.032 0.030v0.031c-0.699 1.117-0.73 2.559 0.032 3.625l1.187 1.656 0.312 1.72-3.219 4.905-1.031 1.531h4.781l1.157 2.687 0.718 1.72 1.031-1.563 3.157-4.75c0.848 0.347 1.805 0.379 2.626 0l3.157 4.75 1.031 1.563 0.718-1.719 1.157-2.686h4.781l-1.031-1.532-3.125-4.749 0.25-1.875 1.156-1.656 0.032-0.030v-0.031c0.699-1.117 0.731-2.528-0.032-3.594l-1.156-1.657-0.375-1.874h0.030c-0.004-0.024-0.027-0.040-0.030-0.064-0.18-1.307-1.215-2.37-2.531-2.531h-0.032l-1.874-0.25-1.656-1.156c-0.493-0.364-1.111-0.586-1.78-0.594l-0.002-0zM16 5.031c0.23 0 0.457 0.070 0.625 0.188l2 1.437 0.25 0.032 2.188 0.312h0.030c0.45 0.050 0.762 0.363 0.813 0.813v0.061l0.407 2.219 0.030 0.219 0.156 0.187 1.282 1.781c0.238 0.332 0.27 0.895-0.031 1.375l-1.406 1.969-0.031 0.25-0.312 2.188v0.030c-0.018 0.165-0.074 0.313-0.159 0.441l0.002-0.004-0.062 0.032v0.030c-0.145 0.173-0.354 0.289-0.59 0.312l-0.004 0h-0.062l-2.281 0.407-0.25 0.030-0.188 0.157-1.781 1.281c-0.331 0.239-0.926 0.27-1.406-0.030l-1.625-1.25-0.188-0.156-0.28-0.032-2.188-0.312h-0.030c-0.294-0.027-0.545-0.194-0.686-0.433l-0.002-0.004c-0.063-0.108-0.108-0.235-0.124-0.371l-0.001-0.005v-0.061l-0.405-2.282-0.032-0.25-0.156-0.188-1.282-1.781c-0.238-0.332-0.27-0.926 0.031-1.406l1.25-1.624 0.157-0.188 0.030-0.281 0.282-2.094c0.005-0.015 0.027-0.015 0.031-0.031 0.13-0.491 0.509-0.87 0.991-0.998l0.010-0.002c0.015-0.004 0.015-0.027 0.030-0.030l2.094-0.282 0.25-0.030 0.219-0.157 1.781-1.281c0.168-0.117 0.395-0.188 0.625-0.188zM22.906 20.25l1.531 2.344h-2.408l-0.25 0.625-0.686 1.592-2.126-3.25 0.469-0.343 1.97-0.344v0.031c0.023-0.004 0.038-0.027 0.062-0.030 0.526-0.076 1.023-0.293 1.438-0.625zM9.094 20.28c0.418 0.382 0.954 0.641 1.548 0.718l0.014 0.002h0.030l1.908 0.25 0.437 0.344-2.125 3.218-0.687-1.593-0.25-0.625h-2.406l1.531-2.313z"></path>
</symbol>
<symbol id="icon-location-icon" viewBox="0 0 32 32">
<path d="M15.387 29.801c-0.521-0.309-1.031-0.639-1.527-0.989l-0.080-0.054c-1.251-0.892-2.419-1.891-3.496-2.989-2.591-2.653-5.284-6.641-5.284-11.769v0c0-6.075 4.925-11 11-11s11 4.925 11 11c0 5.129-2.692 9.116-5.284 11.769l-0.004 0.004c-1.074 1.093-2.243 2.093-3.573 3.039-0.495 0.349-1.004 0.68-1.525 0.989l-0.095 0.055-0.037 0.020 0.005-0.003c-0.145 0.079-0.311 0.125-0.487 0.125s-0.343-0.045-0.482-0.122l-0.131-0.075zM16 18c2.209 0 4-1.791 4-4s-1.791-4-4-4v0c-2.209 0-4 1.791-4 4s1.791 4 4 4v0z"></path>
</symbol>
<symbol id="icon-icon-button-left" viewBox="0 0 34 32">
<path d="M22.733 3.867c0.334 0.333 0.501 0.728 0.501 1.184 0 0.454-0.166 0.848-0.501 1.182l-9.766 9.766 9.8 9.8c0.289 0.287 0.468 0.685 0.468 1.124 0 0.015-0 0.031-0.001 0.046l0-0.002c0 0.464-0.166 0.864-0.501 1.2-0.295 0.308-0.71 0.499-1.169 0.499-0.005 0-0.010-0-0.015-0h0.001c-0.004 0-0.008 0-0.013 0-0.46 0-0.875-0.192-1.169-0.5l-0.001-0.001-11.2-11.232c-0.122-0.119-0.219-0.264-0.28-0.426l-0.003-0.008c-0.053-0.146-0.083-0.315-0.083-0.49 0-0.004 0-0.007 0-0.011v0.001c0-0.178 0.027-0.344 0.083-0.501 0.065-0.169 0.161-0.314 0.283-0.432l0-0 11.234-11.234c0.284-0.289 0.678-0.468 1.114-0.468 0.012 0 0.024 0 0.036 0l-0.002-0c0.456 0 0.851 0.166 1.184 0.501z"></path>
</symbol>
<symbol id="icon-icon-button-right" viewBox="0 0 34 32">
<path d="M10.867 28.133c-0.309-0.295-0.501-0.71-0.501-1.17 0-0.005 0-0.010 0-0.014v0.001c0-0.454 0.166-0.848 0.501-1.182l9.766-9.766-9.802-9.8c-0.289-0.287-0.468-0.685-0.468-1.124 0-0.016 0-0.031 0.001-0.046l-0 0.002c0-0.464 0.166-0.864 0.501-1.2 0.333-0.333 0.728-0.499 1.184-0.499 0.454 0 0.848 0.166 1.182 0.501l11.2 11.232c0.122 0.119 0.219 0.264 0.28 0.426l0.003 0.008c0.053 0.146 0.083 0.315 0.083 0.491 0 0.004 0 0.007-0 0.011v-0.001c0 0.003 0 0.007 0 0.010 0 0.176-0.030 0.345-0.086 0.501l0.003-0.010c-0.065 0.169-0.161 0.314-0.283 0.432l-0 0-11.232 11.234c-0.284 0.289-0.678 0.468-1.114 0.468-0.012 0-0.024-0-0.036-0l0.002 0c-0.456 0-0.851-0.166-1.184-0.501z"></path>
</symbol>
<symbol id="icon-Icon-adopt" viewBox="0 0 32 32">
<path d="M11.134 4c1.573-0.227 3.24 1.493 3.72 3.867 0.48 2.36-0.387 4.467-1.96 4.707-1.56 0.239-3.24-1.48-3.733-3.854-0.493-2.36 0.4-4.467 1.973-4.72zM20.667 4c1.586 0.253 2.467 2.36 2 4.72-0.507 2.373-2.173 4.093-3.747 3.854-1.586-0.241-2.453-2.347-1.96-4.707 0.48-2.373 2.146-4.094 3.707-3.867zM4 10.133c1.52-0.653 3.587 0.533 4.667 2.6 1.013 2.107 0.667 4.32-0.84 4.974s-3.56-0.52-4.613-2.613c-1.054-2.093-0.68-4.32 0.786-4.96zM28 10.133c1.467 0.64 1.84 2.866 0.786 4.96s-3.106 3.267-4.613 2.613c-1.507-0.653-1.854-2.866-0.84-4.973 1.080-2.067 3.147-3.253 4.667-2.6zM25.774 24.507c0.053 1.253-0.907 2.64-2.054 3.16-2.386 1.093-5.213-1.173-7.867-1.173s-5.506 2.36-7.853 1.173c-1.333-0.654-2.253-2.387-2.080-3.827 0.24-1.986 2.626-3.054 4.040-4.507 1.88-1.88 3.213-5.413 5.893-5.413 2.667 0 4.080 3.48 5.88 5.413 1.48 1.627 3.947 3 4.040 5.173z"></path>
</symbol>
</defs>
</svg>
