<svg id="paw-icon" width="24" height="24" viewBox="0 0 24 24" fill="none" xmlns="http://www.w3.org/2000/svg">
<path d="M8.35 2.99991C9.53 2.82991 10.78 4.11991 11.14 5.89991C11.5 7.66991 10.85 9.24991 9.67 9.42991C8.5 9.60991 7.24 8.31991 6.87 6.53991C6.5 4.76991 7.17 3.18991 8.35 2.99991ZM15.5 2.99991C16.69 3.18991 17.35 4.76991 17 6.53991C16.62 8.31991 15.37 9.60991 14.19 9.42991C13 9.24991 12.35 7.66991 12.72 5.89991C13.08 4.11991 14.33 2.82991 15.5 2.99991ZM3 7.59991C4.14 7.10991 5.69 7.99991 6.5 9.54991C7.26 11.1299 7 12.7899 5.87 13.2799C4.74 13.7699 3.2 12.8899 2.41 11.3199C1.62 9.74991 1.9 8.07991 3 7.59991ZM21 7.59991C22.1 8.07991 22.38 9.74991 21.59 11.3199C20.8 12.8899 19.26 13.7699 18.13 13.2799C17 12.7899 16.74 11.1299 17.5 9.54991C18.31 7.99991 19.86 7.10991 21 7.59991ZM19.33 18.3799C19.37 19.3199 18.65 20.3599 17.79 20.7499C16 21.5699 13.88 19.8699 11.89 19.8699C9.9 19.8699 7.76 21.6399 6 20.7499C5 20.2599 4.31 18.9599 4.44 17.8799C4.62 16.3899 6.41 15.5899 7.47 14.4999C8.88 13.0899 9.88 10.4399 11.89 10.4399C13.89 10.4399 14.95 13.0499 16.3 14.4999C17.41 15.7199 19.26 16.7499 19.33 18.3799Z" fill="white"/>
</svg>
