<svg xmlns="http://www.w3.org/2000/svg" fill="none" viewBox="0 0 42 42"><path fill="#FDF2D5" d="M14.613 5.25c2.064-.298 4.252 1.96 4.882 5.075.63 3.098-.508 5.863-2.573 6.178-2.047.314-4.252-1.943-4.9-5.058-.647-3.098.525-5.863 2.59-6.195Zm12.512 0c2.082.332 3.238 3.097 2.625 6.195-.665 3.115-2.852 5.372-4.918 5.058-2.082-.316-3.22-3.08-2.572-6.178.63-3.115 2.817-5.373 4.865-5.075ZM5.25 13.3c1.995-.857 4.708.7 6.125 3.412 1.33 2.765.875 5.67-1.102 6.528-1.978.858-4.673-.682-6.055-3.43-1.383-2.747-.893-5.67 1.032-6.51Zm31.5 0c1.925.84 2.415 3.762 1.032 6.51-1.382 2.748-4.077 4.288-6.054 3.43-1.978-.857-2.433-3.762-1.103-6.527 1.417-2.713 4.13-4.27 6.125-3.413Zm-2.922 18.865c.07 1.645-1.19 3.465-2.696 4.148-3.132 1.434-6.842-1.54-10.325-1.54-3.482 0-7.227 3.097-10.307 1.54-1.75-.858-2.957-3.133-2.73-5.023.315-2.607 3.447-4.008 5.303-5.915 2.467-2.468 4.217-7.105 7.735-7.105 3.5 0 5.355 4.567 7.717 7.105 1.943 2.135 5.18 3.938 5.303 6.79Z"/></svg>