<svg width="136" height="44" viewBox="0 0 136 44" fill="none" xmlns="http://www.w3.org/2000/svg">
<g clip-path="url(#clip0_695_1482)">
<path d="M21.0385 8.56658C22.5945 8.8917 23.5724 11.078 23.2117 13.4724C22.8556 15.8542 21.3206 17.5374 19.7601 17.2248C18.2121 16.9168 17.2217 14.7259 17.5698 12.327C17.9134 9.94061 19.4734 8.26652 21.0385 8.56658ZM29.9969 11.8272C31.4012 12.6079 31.5076 14.8885 30.262 16.9466C28.9741 19.0035 26.8197 20.0497 25.4233 19.2861C24.0144 18.5179 23.9206 16.2418 25.1913 14.1929C26.4541 12.1269 28.6085 11.0806 29.9969 11.8272ZM12.2376 11.8903C13.8894 11.7962 15.4256 13.6182 15.7336 15.9296C15.9653 18.2558 14.8826 20.2171 13.2433 20.3157C11.604 20.4143 10.0758 18.6095 9.80199 16.2821C9.52814 13.9548 10.6405 11.9901 12.2376 11.8903ZM34.7903 20.0988C35.9496 21.2018 35.5388 23.4219 33.8331 25.0287C32.1273 26.6355 29.7965 27.0358 28.6041 25.9066C27.4118 24.7773 27.843 22.5789 29.5158 20.9459C31.2375 19.3732 33.5854 18.965 34.7903 20.0988ZM27.7819 32.8437C27.4034 34.0397 26.027 35.0144 24.7716 35.1109C22.1549 35.322 20.274 32.2252 17.7807 31.3177C15.2874 30.4102 11.7989 31.652 9.99965 29.7343C8.97018 28.6644 8.6985 26.7209 9.35389 25.427C10.2589 23.6422 12.8665 23.4562 14.6916 22.5739C17.1012 21.4503 19.5626 18.5861 22.081 19.5027C24.5869 20.4147 24.7247 24.1682 25.7549 26.6006C26.5893 28.6354 28.4375 30.7695 27.7819 32.8437Z" fill="#EB9526"/>
</g>
<path d="M44.4688 30V28.1543L45.9727 27.8516V17.9395L44.4688 17.6367V15.7812H45.9727H51.3047C52.418 15.7812 53.3783 15.9766 54.1855 16.3672C54.9993 16.7513 55.6243 17.2917 56.0605 17.9883C56.4967 18.6784 56.7148 19.4857 56.7148 20.4102C56.7148 21.3281 56.4967 22.1322 56.0605 22.8223C55.6243 23.5124 54.9993 24.0495 54.1855 24.4336C53.3783 24.8177 52.418 25.0098 51.3047 25.0098H49.0977V27.8516L50.5918 28.1543V30H44.4688ZM49.0977 22.6074H51.3047C52.0599 22.6074 52.6296 22.4023 53.0137 21.9922C53.3978 21.582 53.5898 21.0612 53.5898 20.4297C53.5898 19.7721 53.3978 19.2318 53.0137 18.8086C52.6296 18.3854 52.0599 18.1738 51.3047 18.1738H49.0977V22.6074ZM62.623 30.2051C61.6009 30.2051 60.709 29.9837 59.9473 29.541C59.1855 29.0918 58.5931 28.4798 58.1699 27.7051C57.7533 26.9238 57.5449 26.0384 57.5449 25.0488V24.668C57.5449 23.6133 57.737 22.6758 58.1211 21.8555C58.5052 21.0352 59.0586 20.3939 59.7812 19.9316C60.5039 19.4629 61.3698 19.2318 62.3789 19.2383C63.3359 19.2383 64.1432 19.4238 64.8008 19.7949C65.4583 20.166 65.9564 20.7096 66.2949 21.4258C66.64 22.1354 66.8125 23.0013 66.8125 24.0234V25.6836H60.7871L60.7773 25.7422C60.8164 26.1458 60.9271 26.5039 61.1094 26.8164C61.2982 27.1224 61.5553 27.3665 61.8809 27.5488C62.2129 27.7311 62.6165 27.8223 63.0918 27.8223C63.5801 27.8223 64.0423 27.7637 64.4785 27.6465C64.9212 27.5293 65.3672 27.347 65.8164 27.0996L66.5977 29.0039C66.1419 29.349 65.5755 29.6354 64.8984 29.8633C64.2279 30.0911 63.4694 30.2051 62.623 30.2051ZM60.7969 23.6816H63.9219V23.4277C63.9219 23.0241 63.873 22.6823 63.7754 22.4023C63.6842 22.1159 63.528 21.8978 63.3066 21.748C63.0918 21.5983 62.8053 21.5234 62.4473 21.5234C62.0827 21.5234 61.7832 21.6146 61.5488 21.7969C61.3145 21.9792 61.1354 22.2298 61.0117 22.5488C60.8945 22.8678 60.8132 23.2292 60.7676 23.6328L60.7969 23.6816ZM72.3594 30.2148C71.3177 30.2148 70.5202 29.9349 69.9668 29.375C69.4134 28.8086 69.1367 27.9134 69.1367 26.6895V21.6113H67.75V19.4336H69.1367V16.8359H72.2422V19.4336H74.0879V21.6113H72.2422V26.6797C72.2422 27.0573 72.3236 27.3275 72.4863 27.4902C72.6556 27.6465 72.8835 27.7246 73.1699 27.7246C73.3132 27.7246 73.4596 27.7148 73.6094 27.6953C73.7591 27.6758 73.8958 27.6562 74.0195 27.6367L74.2539 29.9316C73.9609 30.0163 73.6517 30.0846 73.3262 30.1367C73.0072 30.1888 72.6849 30.2148 72.3594 30.2148ZM76.8027 20.4883L75.2988 19.707C75.5397 19.2578 75.7253 18.7923 75.8555 18.3105C75.9857 17.8223 76.0508 17.2656 76.0508 16.6406V14.7656H78.5801V16.6504C78.5801 17.0866 78.4987 17.5456 78.3359 18.0273C78.1732 18.5026 77.9551 18.9551 77.6816 19.3848C77.4147 19.8145 77.1217 20.1823 76.8027 20.4883ZM83.6973 30.2051C82.89 30.2051 82.1348 30.1302 81.4316 29.9805C80.735 29.8307 80.0872 29.6191 79.4883 29.3457L79.4492 26.2109H81.5879L81.9785 27.7344C82.1608 27.832 82.3724 27.9134 82.6133 27.9785C82.8542 28.0436 83.1341 28.0762 83.4531 28.0762C84.0521 28.0762 84.4688 27.985 84.7031 27.8027C84.9375 27.6204 85.0547 27.3958 85.0547 27.1289C85.0547 26.8685 84.9245 26.6341 84.6641 26.4258C84.4036 26.2174 83.873 26.0384 83.0723 25.8887C81.8288 25.6348 80.9108 25.2279 80.3184 24.668C79.7324 24.1016 79.4395 23.3854 79.4395 22.5195C79.4395 21.9336 79.5827 21.3965 79.8691 20.9082C80.1556 20.4134 80.6048 20.0163 81.2168 19.7168C81.8353 19.4108 82.6393 19.2578 83.6289 19.2578C84.4232 19.2578 85.1654 19.3327 85.8555 19.4824C86.5456 19.6257 87.1185 19.8112 87.5742 20.0391L87.584 23.0664H85.4551L85.1523 21.6992C84.9896 21.582 84.8008 21.4941 84.5859 21.4355C84.3711 21.3704 84.1302 21.3379 83.8633 21.3379C83.3945 21.3379 83.0397 21.429 82.7988 21.6113C82.5645 21.7936 82.4473 22.0247 82.4473 22.3047C82.4473 22.4674 82.4928 22.627 82.584 22.7832C82.6816 22.9329 82.8639 23.0762 83.1309 23.2129C83.3978 23.3431 83.7917 23.4668 84.3125 23.584C85.5755 23.8639 86.5065 24.248 87.1055 24.7363C87.7109 25.2246 88.0137 25.9342 88.0137 26.8652C88.0137 27.8743 87.6491 28.6849 86.9199 29.2969C86.1908 29.9023 85.1165 30.2051 83.6973 30.2051ZM94 30V28.1543L95.5039 27.8516V17.9395L94 17.6367V15.7812H95.5039H100.836C101.949 15.7812 102.91 15.9766 103.717 16.3672C104.531 16.7513 105.156 17.2917 105.592 17.9883C106.028 18.6784 106.246 19.4857 106.246 20.4102C106.246 21.3281 106.028 22.1322 105.592 22.8223C105.156 23.5124 104.531 24.0495 103.717 24.4336C102.91 24.8177 101.949 25.0098 100.836 25.0098H98.6289V27.8516L100.123 28.1543V30H94ZM98.6289 22.6074H100.836C101.591 22.6074 102.161 22.4023 102.545 21.9922C102.929 21.582 103.121 21.0612 103.121 20.4297C103.121 19.7721 102.929 19.2318 102.545 18.8086C102.161 18.3854 101.591 18.1738 100.836 18.1738H98.6289V22.6074ZM110.602 30.2051C109.56 30.2051 108.723 29.9219 108.092 29.3555C107.467 28.7826 107.154 28.0111 107.154 27.041C107.154 26.3835 107.33 25.8008 107.682 25.293C108.04 24.7852 108.574 24.388 109.283 24.1016C109.993 23.8151 110.875 23.6719 111.93 23.6719H113.189V22.9688C113.189 22.5 113.053 22.1126 112.779 21.8066C112.512 21.5007 112.102 21.3477 111.549 21.3477C111.282 21.3477 111.038 21.3802 110.816 21.4453C110.602 21.5104 110.403 21.6048 110.221 21.7285L109.996 23.0957H107.77L107.73 20.2637C108.303 19.9707 108.915 19.7266 109.566 19.5312C110.217 19.3359 110.94 19.2383 111.734 19.2383C113.147 19.2383 114.264 19.5638 115.084 20.2148C115.904 20.8659 116.314 21.7936 116.314 22.998V27.1387C116.314 27.2884 116.314 27.4349 116.314 27.5781C116.321 27.7148 116.337 27.8483 116.363 27.9785L117.477 28.1543V30H113.727C113.648 29.8503 113.567 29.6745 113.482 29.4727C113.398 29.2708 113.339 29.069 113.307 28.8672C112.975 29.2773 112.594 29.6029 112.164 29.8438C111.734 30.0846 111.214 30.2051 110.602 30.2051ZM111.5 27.9492C111.826 27.9492 112.141 27.8776 112.447 27.7344C112.753 27.5911 113.001 27.3958 113.189 27.1484V25.5469H111.949C111.402 25.5469 110.982 25.6706 110.689 25.918C110.403 26.1654 110.26 26.4714 110.26 26.8359C110.26 27.1875 110.37 27.4609 110.592 27.6562C110.82 27.8516 111.122 27.9492 111.5 27.9492ZM121.207 30L118.854 21.5625L117.525 21.2891V19.4336H122.848V21.2793L121.793 21.4941L122.633 25.2637L122.789 25.9473H122.848L123.062 25.2637L125.191 19.4336H127.193L129.273 25.3809L129.479 26.0449H129.537L129.732 25.3809L130.787 21.5137L129.586 21.2793V19.4336H134.801V21.2891L133.551 21.5527L130.885 30H128.316L126.441 25.0977L126.139 24.0918H126.08L125.797 25.1074L124 30H121.207Z" fill="#1F1A17"/>
<defs>
<clipPath id="clip0_695_1482">
<rect width="32" height="32" fill="white" transform="translate(11.9446 1) rotate(20)"/>
</clipPath>
</defs>
</svg>
